<svg xmlns="http://www.w3.org/2000/svg" viewBox="0 0 28.21 14.85"><defs><style>.cls-1{fill:#821522;}</style></defs><g id="Layer_2" data-name="Layer 2"><g id="Layer_1-2" data-name="Layer 1"><path class="cls-1" d="M19.88,2.23a5.24,5.24,0,0,0,.37.69c.23.37-.09.33,1.25.78l1.34.46s0,.74,1.4,1.33a3.51,3.51,0,0,0,2.82.26,20,20,0,0,0-2.77-1.94c-.51-.11,2.18.35,2.59,1.23s.33-1.32-.44-2A4.72,4.72,0,0,0,24,.7s-4.2-1.73-5,.24c0,0-.91.39-.8-.3s-.74.24-.88,1c0,0,.14-1-.19-.64S14.8,4,14.75,4.47s-1.64-.39-2-.21S13.24,4,13,3l.51-.9a7.43,7.43,0,0,1,1.62-.19c.48.07-.59-.58-1-.47a6.31,6.31,0,0,1-1,.18,7,7,0,0,0-.38.92c-.08.3-.31,1-.37,1.18a3.94,3.94,0,0,1-.37.48l-.91.08s.29-.6.14-.86.31-1.18.31-1.18l1.29-.65.43-.19a1.22,1.22,0,0,0-1.18.05c-.62.37-1,.58-1,.58a10.73,10.73,0,0,0-.25,1.6c0,.67-.25.74-.25.74l-.41.09V4.08a7.87,7.87,0,0,0-.17-1.87C9.88,2,7.58,2.06,7.4,3.06c0,0-.32.19.75-.29s1.53-.25,1.53-.25l.13,1.55,0,.59-.41.21s-.82-.12-1,.17c0,0-1-.52-1.15.06,0,0-.77-.6-1.14,0,0,0-.65-.42-1.1,0,0,0-.71-.68-1.21,0a.7.7,0,0,0-1.06.13A.36.36,0,0,0,2.47,5C2.33,5,2.36,4,2.06,3.86S.73,3.05.71,4.24A.93.93,0,0,0,0,5.1C0,5.78.23,6,.33,6s-.8.85,0,1.5c0,0-1,1.25.31,1.85,0,0,.16,1.24,1.37.41a1.62,1.62,0,0,0,.29-1.11s.23.18.23-.35H2.7a.53.53,0,0,0,.65.36c.54-.1.36-.47.36-.47s.28.6.77.48.4-.45.4-.45.21.56.71.45S6,8.2,6,8.2s.24.67.73.46.4-.38.4-.38.24.56.72.4.46-.39.46-.39l.14.17.3,0A.45.45,0,0,0,9,8.61c.16,0,.14.06.14.06a.16.16,0,0,0,.24-.05c.1-.16.4.12.4.12a4.16,4.16,0,0,1,0,.65c0,.12-.33,1.12-.33,1.3a2.24,2.24,0,0,0,0,.86c.11.3.2.81.42,1a2,2,0,0,0,.61.25.85.85,0,0,1-.32-.28,2.06,2.06,0,0,1-.31-1.17A8.44,8.44,0,0,0,10,9.93s.28-.37.24-.61,0-.46,0-.46l.47.1a5.59,5.59,0,0,1,.07,1.18c0,.65,0,1.37,0,1.37a2.2,2.2,0,0,0,1.35.65c.66,0,.6-.15.6-.15s0-.12-.58-.12a1.34,1.34,0,0,1-.94-.55l0-1.22a.67.67,0,0,0,.1-.58A1.65,1.65,0,0,1,11.11,9l.75.05a3.6,3.6,0,0,1,.11.54,6.14,6.14,0,0,0,.25,1.71,2,2,0,0,0,1.24.71,2.93,2.93,0,0,0,1,0l-.6-.2a3.9,3.9,0,0,1-1.07-.49,4.44,4.44,0,0,1-.39-1.16s.06-.95-.16-1,.85-.07.85-.07l1.34-.25A1.72,1.72,0,0,0,15,9.94a23.69,23.69,0,0,1,1.59,2.78c0,.3.28.29.31-.13s.16-.28.16-.28l.08.54s.22.78.53.76a.26.26,0,0,1,.19-.29c.21-.05.78,0,.76.07a1,1,0,0,0,.82.93c.76.15,3,1,5.1.11s2.43-1.54,2.43-1.54,1.45-1.81,1.26-2.84-.31-.7-.31-.7l0,.75s-1.24.38-1.47.47-2.12.72-2.12.72.34-1.22,3.39-1.6h.15s0-.18-.23-.35a3.79,3.79,0,0,0-4.65.8l0,.19a3.8,3.8,0,0,1-.33-.41c0-.09-.28.19-.28.19s-.25.12-.29.09-.18-.3-.3-.18a.34.34,0,0,0-.09.26l-.16,0-.31.35s-.45-.22-.57,0-.06.31-.06.31a.49.49,0,0,0-.43.45s-.27-.12-.34.33l-.17.23s-.62-.65-.72-.63,0-.28,0-.28l-.27-.18a2.12,2.12,0,0,1-.49-.37c-.09-.15-.34-.55-.51-.55s-.43-.41-.43-.41h.16L16.55,9l.16,0-.45-.23-.13-.45a12.57,12.57,0,0,0,1.26-.45,5.46,5.46,0,0,1,.75-.4c.12,0,1.21-.08,1.21-.08L18,7s.1-.44,0-.46,1.3-.28,1.3-.28L18,6.13s-.14-.37-.36-.43-1.29-.5-1.29-.5l.11-.49L17,4.5l-.07-.21L17.55,4l.12-.23a1.17,1.17,0,0,0,.56-.39A1.32,1.32,0,0,1,18.9,3a.81.81,0,0,1,.4-.37A2.14,2.14,0,0,0,19.88,2.23Z"/></g></g></svg>