<svg xmlns="http://www.w3.org/2000/svg" viewBox="0 0 134.74 73.86"><defs><style>.cls-1{fill:#821522;}.cls-2{fill:#103253;}.cls-3{fill:#fff;}</style></defs><g id="Layer_2" data-name="Layer 2"><g id="Layer_1-2" data-name="Layer 1"><path class="cls-1" d="M25.61,73.86V73.5c1,.11,2.05-1,2.05-2.59V57.38c0-1.91-.79-2.81-1.8-2.67v-.36h8.71v.36c-1,.08-1.83.36-1.83,2.67V71c0,1.62.43,2.09,2,2.09h2.16a2.59,2.59,0,0,0,1.44-.36c1-.61,1.69-2.45,2.27-3.67h.32l-1.51,4.78Z"/><path class="cls-1" d="M56.53,66.77c0,5.26-3.71,7.09-7.38,7.09S41.7,72.32,41.66,67c0-4.54,2.27-7.06,5.55-7.85a8.69,8.69,0,0,1,2.3-.33C53.58,58.85,56.53,61.52,56.53,66.77ZM51.2,65.19c-.93-3.38-1.91-5.47-3-5.47-2.45,0-1.66,5.83-1.26,7.59S48.68,73,50.27,73C52.5,73,51.63,66.77,51.2,65.19Z"/><path class="cls-1" d="M72.05,70.44c-1.88,3.42-4.5,3.42-8.72,3.42-2.51,0-5-1.36-5.25-4.46-.14-1.76.86-4.53,3.71-4.53,2.19,0,3.78,1.76,2.7,4.13a2.34,2.34,0,0,0-3.93,1.62c0,1.95,1.73,2.56,3.21,2.56,3.34,0,4.42-2.56,4.42-5.29,0-1.58-.43-5.18-.9-6-.93-1.29-2.41-.79-3.31.69v2.09a4.51,4.51,0,0,0-4.89.32V57.13a2.74,2.74,0,0,0-.58-2.06,2,2,0,0,0-1.26-.46l0-.26,6.3-2,.39.29v8.86c1.3-1.62,2.56-2.7,4.43-2.7s3.31,1.47,4,3.49A10.42,10.42,0,0,1,72.05,70.44Z"/><path class="cls-1" d="M84.5,69.4A4.21,4.21,0,0,1,80,73.86H75.11l-.22-4.24h.33a3.69,3.69,0,0,0,3.52,3.63,1.64,1.64,0,0,0,1.62-1.73c0-1.18-1.83-2.59-2.52-3.16C76.4,67.13,75,65.58,75,63.25c0-3,1.9-4.4,4.71-4.4a7.52,7.52,0,0,1,2.34.29c1.12.36,1.37.43,1.55-.29h.18v4.72h-.25c-.15-2.66-1.66-4.14-2.88-4.14a1.52,1.52,0,0,0-1.59,1.8c.15,1.33,2,2.84,2.78,3.49A5.63,5.63,0,0,1,84.5,69.4Z"/><path class="cls-1" d="M94.69,72.28a5.23,5.23,0,0,1-4,1.58,3.78,3.78,0,0,1-2.81-1,3.6,3.6,0,0,1-1-2.59V59.9H85.58v-.43l5.69-4.58h.54v4h3.6l-.14,1H91.81V70.23a3.26,3.26,0,0,0,.36,1.65,1,1,0,0,0,.86.54,1.94,1.94,0,0,0,1.23-.54,4.82,4.82,0,0,0,1-1.4l.43.36A6.61,6.61,0,0,1,94.69,72.28Z"/><path class="cls-1" d="M105.06,73.61a6.42,6.42,0,0,1-2.09.25,6,6,0,0,1-5.9-4c-1.95-5.25,1-11.08,6.58-11.08,3.93,0,5.51,3.24,5.51,7.12h-7.67c-.25,2.31.26,6.73,3.17,6.91,1.91,0,3.38-1.33,4.39-2.91l.4.32A6.81,6.81,0,0,1,105.06,73.61ZM101.49,65h3.13c-.1-2.55,0-5.68-1.61-5.54C101.64,59.54,101.64,63.57,101.49,65Z"/><path class="cls-1" d="M119.64,73.47v.39h-8.75v-.39c1-.11,2-1.3,2-3.64l0-2.59V65.3h4.85v4.53C117.76,72.46,118.45,73.22,119.64,73.47Zm4.06-12.28a5.56,5.56,0,0,1-1.65,3.71c-.4-1-.83-2.48-2.09-2.48a2.22,2.22,0,0,0-1.51,1.11l-.69,1.12v.65h-4.85V63.57a2.64,2.64,0,0,0-.62-2,2,2,0,0,0-1.22-.5l0-.22,6.26-2,.39.29v4l1.34-2.73a3.05,3.05,0,0,1,2.26-1.62A2.57,2.57,0,0,1,123.7,61.19Z"/><path class="cls-2" d="M0,48.69v-.34c.92.1,1.94-1,1.94-2.45V33.12c0-1.81-.75-2.66-1.7-2.52v-.34H8.47v.34c-.92.07-1.74.34-1.74,2.52V46c0,1.53.41,2,1.91,2h2A2.47,2.47,0,0,0,12,47.63c1-.58,1.59-2.31,2.14-3.47h.3l-1.43,4.53Z"/><path class="cls-2" d="M23.39,48.28v.41H15.16v-.41c1-.1,1.91-1.23,1.87-3.44V39A2.58,2.58,0,0,0,16.46,37a1.91,1.91,0,0,0-1.19-.48l0-.2,5.95-1.87.41.27V44.84C21.66,47.33,22.3,48,23.39,48.28ZM16.08,31.35a2.77,2.77,0,0,1,2.82-2.89,2.81,2.81,0,0,1,2.86,3A2.69,2.69,0,0,1,19,34.27,2.81,2.81,0,0,1,16.08,31.35Z"/><path class="cls-2" d="M37.64,50.05c-.11,2.27-2.59,4.79-7.21,4.79-5.3,0-6.6-1.77-6.7-3.37-.1-1.29,1.36-2.44,1.36-2.44a2,2,0,0,1-1.15-1.91c.1-1.43,1.73-2.72,4.45-2.85a4.48,4.48,0,0,0-1.12-.38,4.08,4.08,0,0,1-3.06-4.14c0-3.78,3.6-5.21,6.19-5.21a7.32,7.32,0,0,1,4.07,1.3c.68-1.64,2.72-1.77,3.71.2a2.92,2.92,0,0,0-2.65,1.39,4,4,0,0,1,.64,2.25c0,3.47-3,4.79-5.37,4.79h-.61a1,1,0,0,0-1,1.05c0,1.33,3.67,1.3,4.42,1.36C36.41,47.19,37.74,48.35,37.64,50.05Zm-3.17,2.1c0-1.63-2.41-1.7-3.39-1.8A22.81,22.81,0,0,1,27,49.74c0,3,1.46,4.39,4.48,4.39C32.81,54.13,34.47,53.31,34.47,52.15ZM28.63,39.54c0,1.43.41,4.32,1.87,4.32,1.63,0,1.42-2.65,1.42-4.18s-.57-4.52-2-4.46C28.93,35.26,28.63,38.59,28.63,39.54Z"/><path class="cls-2" d="M53.38,48.28v.41H46.54v-.38c.79,0,1-1.19,1.13-2.44.1-2,0-5,0-7a1.85,1.85,0,0,0-1.7-2,2.5,2.5,0,0,0-1.43.54v8.33c0,1.09.17,2.45,1.19,2.55v.38H38.66v-.38c.81.1,1.29-.47,1.29-2.55V32.88a2.39,2.39,0,0,0-.61-1.94,1.69,1.69,0,0,0-1.16-.44l0-.24,6-1.87.37.27v8a7.4,7.4,0,0,1,4.32-2.11c1.93,0,3.12,1.87,3.16,3.64.07,2.68.07,5.61,0,8.33C52,47.6,52.66,48.31,53.38,48.28Z"/><path class="cls-2" d="M62.32,47.19a5,5,0,0,1-3.74,1.5,3.54,3.54,0,0,1-2.65-1A3.43,3.43,0,0,1,55,45.25V35.5H53.72v-.41l5.37-4.32h.51v3.74H63l-.13,1H59.6v9.75a3.21,3.21,0,0,0,.34,1.57.93.93,0,0,0,.82.51,1.83,1.83,0,0,0,1.15-.51,4.32,4.32,0,0,0,1-1.33l.41.34A6.61,6.61,0,0,1,62.32,47.19Z"/><path class="cls-2" d="M79.18,48.28v.41H72.35v-.38c.78,0,1-1.19,1.12-2.44.1-2,0-5,0-7a1.84,1.84,0,0,0-1.7-2,2.53,2.53,0,0,0-1.43.54v8.33c0,1.09.17,2.45,1.2,2.55v.38H64.46v-.38c.82.1,1.29-.47,1.29-2.55V32.88a2.39,2.39,0,0,0-.61-1.94A1.66,1.66,0,0,0,64,30.5l0-.24,6-1.87.37.27v8a7.43,7.43,0,0,1,4.32-2.11c1.94,0,3.13,1.87,3.16,3.64.07,2.68.07,5.61,0,8.33C77.79,47.6,78.47,48.31,79.18,48.28Z"/><path class="cls-2" d="M93.91,42c0,5-3.51,6.7-7,6.7s-7-1.47-7.07-6.46c0-4.29,2.14-6.67,5.23-7.41a8.19,8.19,0,0,1,2.18-.31C91.12,34.51,93.91,37,93.91,42Zm-5-1.5c-.89-3.19-1.81-5.16-2.83-5.16-2.31,0-1.56,5.5-1.19,7.17S86.5,47.84,88,47.84C90.1,47.84,89.28,42,88.88,40.49Z"/><path class="cls-2" d="M111,46.71v.51l-5.61,1.47-.72-.41V46a9.18,9.18,0,0,1-1.63,1.39,5.82,5.82,0,0,1-3.13,1.22A2.88,2.88,0,0,1,97,45.8l0-6.87A2.45,2.45,0,0,0,96.42,37a1.83,1.83,0,0,0-1.15-.47l0-.21,5.92-1.87.37.27V44.5c0,1.16.41,1.74,1.19,1.74.61,0,1.22-.44,1.9-1.26v-6a2.61,2.61,0,0,0-.57-1.94,2,2,0,0,0-1.16-.47v-.21l6-1.87.41.27V44.5C109.31,45.76,109.34,47.53,111,46.71Z"/><path class="cls-2" d="M121.11,44.47a4,4,0,0,1-4.25,4.22h-4.63l-.2-4h.3a3.5,3.5,0,0,0,3.34,3.44,1.55,1.55,0,0,0,1.53-1.63c0-1.13-1.74-2.45-2.38-3a6.27,6.27,0,0,1-2.65-4.83c0-2.86,1.8-4.15,4.45-4.15a7,7,0,0,1,2.21.27c1,.34,1.29.41,1.46-.27h.17V39h-.24c-.13-2.51-1.56-3.91-2.72-3.91a1.43,1.43,0,0,0-1.49,1.7c.13,1.26,1.87,2.69,2.61,3.3A5.32,5.32,0,0,1,121.11,44.47Z"/><path class="cls-2" d="M130.59,48.45a6.27,6.27,0,0,1-2,.24A5.72,5.72,0,0,1,123,44.88c-1.83-5,1-10.47,6.23-10.47,3.7,0,5.2,3.06,5.2,6.73h-7.24c-.24,2.18.23,6.36,3,6.53,1.8,0,3.19-1.26,4.15-2.76l.37.31A6.46,6.46,0,0,1,130.59,48.45Zm-3.36-8.16h3c-.1-2.41,0-5.37-1.53-5.24C127.36,35.16,127.36,39,127.23,40.29Z"/><path class="cls-3" d="M29.51,58.47h1.15s-.16-1.31-.57-1.34S29.51,58.47,29.51,58.47Z"/><path class="cls-1" d="M65.19,7.64a4.92,4.92,0,0,0,.64-.35c.34-.21.3.09.72-1.15L67,4.91s.68,0,1.24-1.28A3.27,3.27,0,0,0,68.47,1a17.75,17.75,0,0,0-1.8,2.55c-.11.46.33-2,1.15-2.39S66.6.88,66,1.59A4.35,4.35,0,0,0,63.8,3.8s-1.62,3.86.2,4.59c0,0,.35.84-.29.73s.22.69.95.82c0,0-1-.13-.6.18a18.88,18.88,0,0,0,3.16,2.25c.47,0-.37,1.51-.2,1.88s-.24-.49-1.13-.31l-.83-.47A6.83,6.83,0,0,1,64.9,12c.06-.44-.55.54-.44.9a7,7,0,0,1,.16.94,6.06,6.06,0,0,0,.84.35c.28.07,1,.29,1.09.35a3.11,3.11,0,0,1,.44.34l.07.84s-.56-.27-.79-.13-1.09-.3-1.09-.3l-.59-1.19-.18-.4a1.14,1.14,0,0,0,0,1.09c.34.58.53.93.53.93a10.08,10.08,0,0,0,1.47.23c.61,0,.67.24.67.24l.09.38h-.38a7,7,0,0,0-1.72.15c-.21.16-.16,2.28.77,2.45,0,0,.17.3-.27-.69S65.4,17,65.4,17l1.42-.12.55,0,.19.38s-.11.75.15.94c0,0-.48.89.05,1.07,0,0-.55.7,0,1.05,0,0-.39.6,0,1,0,0-.63.65,0,1.12,0,0-.48.6.12,1a.37.37,0,0,0-.22.18c0,.13-.93.11-1.06.38s-.76,1.22.33,1.25a.87.87,0,0,0,.79.65c.63,0,.85-.2.86-.29s.78.74,1.39,0c0,0,1.14.93,1.7-.27,0,0,1.14-.14.39-1.26a1.48,1.48,0,0,0-1-.27s.16-.21-.32-.22V23.5a.48.48,0,0,0,.33-.59c-.08-.5-.43-.34-.43-.34s.55-.25.45-.71-.41-.37-.41-.37.51-.19.41-.65-.46-.34-.46-.34.62-.22.43-.68-.34-.36-.34-.36.51-.23.37-.66-.36-.43-.36-.43l.16-.13,0-.27a.42.42,0,0,0,.11-.29c0-.15,0-.13,0-.13a.14.14,0,0,0,0-.22c-.15-.1.11-.37.11-.37a3.84,3.84,0,0,1,.61,0c.1,0,1,.31,1.19.31a2.13,2.13,0,0,0,.8,0c.27-.1.74-.18.88-.38a1.79,1.79,0,0,0,.23-.56.69.69,0,0,1-.25.29c-.14.07-.76.39-1.09.28a7.15,7.15,0,0,0-1.27-.14,1.07,1.07,0,0,0-.56-.22l-.42,0,.09-.43a5.18,5.18,0,0,1,1.09-.06c.6,0,1.26,0,1.26,0a1.94,1.94,0,0,0,.61-1.23c0-.61-.13-.56-.13-.56s-.11,0-.12.53a1.24,1.24,0,0,1-.51.87l-1.12,0a.66.66,0,0,0-.54-.1,1.55,1.55,0,0,1-.5.1l.05-.69a3.29,3.29,0,0,1,.5-.09,6.48,6.48,0,0,0,1.58-.22,1.82,1.82,0,0,0,.66-1.15,2.63,2.63,0,0,0,0-.93l-.19.54a3.54,3.54,0,0,1-.46,1,4.16,4.16,0,0,1-1.07.35s-.87-.06-1,.14-.06-.78-.06-.78l-.22-1.24a1.56,1.56,0,0,0,1.1-.46,21.82,21.82,0,0,1,2.57-1.45c.27,0,.27-.26-.12-.28s-.26-.15-.26-.15l.5-.08s.72-.2.7-.48a.24.24,0,0,1-.26-.18,1.48,1.48,0,0,1,.06-.7.9.9,0,0,0,.87-.75c.14-.7,1-2.79.13-4.7s-1.41-2.25-1.41-2.25S73.39-.16,72.44,0s-.65.29-.65.29l.7,0s.34,1.15.42,1.36.65,2,.65,2S72.44,3.32,72.1.51V.37s-.17,0-.32.21a3.48,3.48,0,0,0,.7,4.29l.18,0a3.85,3.85,0,0,1-.37.3c-.09,0,.16.26.16.26s.12.23.08.27-.27.17-.16.27a.3.3,0,0,0,.24.09l0,.15.32.29s-.21.41,0,.52.28.06.28.06a.47.47,0,0,0,.41.4s-.11.25.31.31l.2.16s-.59.56-.58.66-.25,0-.25,0l-.17.25a2,2,0,0,1-.35.44c-.13.09-.51.31-.51.47s-.37.39-.37.39l0-.14-.48.65,0-.15-.21.42-.42.11A9.82,9.82,0,0,0,70.34,10,6.55,6.55,0,0,1,70,9.27c0-.12-.07-1.12-.07-1.12L69.6,9.4s-.41-.1-.42,0a11.88,11.88,0,0,1-.25-1.2l-.16,1.16s-.34.14-.4.34-.46,1.19-.46,1.19l-.46-.11-.19-.5-.19.07-.24-.57-.22-.11a1.07,1.07,0,0,0-.35-.52,1.23,1.23,0,0,1-.37-.62.73.73,0,0,1-.34-.37A1.9,1.9,0,0,0,65.19,7.64Z"/><path class="cls-3" d="M27.64,60.35a15.83,15.83,0,0,0,5.08,0l0,10.67s0,1.92,1.09,2,3.92.34,5-.62l1.82-3.32h.32l-1.51,4.78H25.61V73.5a2.2,2.2,0,0,0,2-2Z"/></g></g></svg>