<svg id="Layer_1" data-name="Layer 1" xmlns="http://www.w3.org/2000/svg" viewBox="0 0 79.1 46.42"><defs><style>.cls-1{fill:#6d1914;}.cls-2{fill:#79c6d5;}.cls-3,.cls-5{fill:#fff;}.cls-3{stroke:#fff;stroke-miterlimit:10;stroke-width:0.25px;}.cls-4{fill:#ead7d6;}</style></defs><path class="cls-1" d="M321.05,176.84a3.55,3.55,0,0,0,.42-.22c.22-.14.19,0,.47-.75l.28-.81s.44,0,.81-.84a2.12,2.12,0,0,0,.16-1.7,11.39,11.39,0,0,0-1.17,1.67c-.08.3.21-1.32.75-1.56s-.8-.21-1.22.26c0,0-.73.21-1.41,1.44,0,0-1.06,2.53.13,3,0,0,.23.54-.19.47s.14.45.62.54c0,0-.63-.09-.39.11a12.49,12.49,0,0,0,2.07,1.48c.3,0-.24,1-.14,1.22s-.15-.31-.74-.2l-.54-.31a4.47,4.47,0,0,1-.1-1c0-.29-.36.36-.29.59a3.73,3.73,0,0,1,.1.62,4.81,4.81,0,0,0,.55.23,5.42,5.42,0,0,1,.71.23,1.4,1.4,0,0,1,.29.22l0,.55s-.36-.18-.52-.09-.71-.19-.71-.19l-.38-.78-.12-.26a.74.74,0,0,0,0,.71c.22.37.35.61.35.61a6.52,6.52,0,0,0,1,.15c.4,0,.44.15.44.15l.06.25h-.25a4.39,4.39,0,0,0-1.13.1c-.13.11-.1,1.49.5,1.61,0,0,.12.19-.17-.46s-.15-.92-.15-.92l.94-.08.35,0,.13.25s-.07.49.1.62c0,0-.32.58,0,.69,0,0-.36.46,0,.69,0,0-.25.39,0,.66,0,0-.4.43,0,.73a.42.42,0,0,0,.08.64.25.25,0,0,0-.15.12c0,.08-.61.07-.69.25s-.5.79.22.81a.57.57,0,0,0,.52.43c.4,0,.55-.13.56-.19s.51.48.9,0c0,0,.75.6,1.12-.18,0,0,.74-.09.25-.82a1,1,0,0,0-.67-.18s.11-.14-.21-.14v-.08a.33.33,0,0,0,.22-.4c-.05-.32-.28-.22-.28-.22s.36-.16.29-.46-.27-.24-.27-.24.34-.12.27-.42-.3-.23-.3-.23.41-.14.28-.44-.22-.24-.22-.24.33-.15.24-.43-.23-.28-.23-.28l.1-.09s0-.05,0-.17a.26.26,0,0,0,.07-.19c0-.1,0-.09,0-.09s.07-.07,0-.14.07-.24.07-.24a2.42,2.42,0,0,1,.4,0c.07,0,.67.2.78.2a1.47,1.47,0,0,0,.52,0c.18-.07.49-.12.58-.25a1.42,1.42,0,0,0,.15-.37.51.51,0,0,1-.17.19,1.22,1.22,0,0,1-.71.18,4.77,4.77,0,0,0-.83-.09.68.68,0,0,0-.37-.15l-.27,0,.06-.28a3.36,3.36,0,0,1,.71,0c.39,0,.83,0,.83,0a1.32,1.32,0,0,0,.4-.81c0-.39-.09-.36-.09-.36s-.07,0-.08.35a.79.79,0,0,1-.33.56l-.74,0a.4.4,0,0,0-.35-.07,1,1,0,0,1-.33.07l0-.46.32-.06a3.79,3.79,0,0,0,1-.14,1.15,1.15,0,0,0,.43-.75,1.73,1.73,0,0,0,0-.61l-.12.36a2.3,2.3,0,0,1-.3.64,2.77,2.77,0,0,1-.7.23s-.57,0-.63.09,0-.51,0-.51l-.14-.81a1,1,0,0,0,.72-.3,14,14,0,0,1,1.68-1c.18,0,.18-.16-.08-.18s-.17-.1-.17-.1l.33,0s.47-.13.46-.32c0,0-.15,0-.18-.11s0-.47,0-.46a.59.59,0,0,0,.56-.49,4.6,4.6,0,0,0,.08-3.07c-.55-1.25-.91-1.47-.91-1.47s-1.09-.88-1.71-.77-.42.18-.42.18l.45,0s.22.75.28.89.42,1.28.42,1.28-.73-.21-.95-2v-.09s-.11,0-.2.14a2.27,2.27,0,0,0,.46,2.8l.11,0a2.07,2.07,0,0,1-.24.2c-.06,0,.11.17.11.17s.07.15.05.17-.18.11-.11.18a.22.22,0,0,0,.16.06v.1l.21.19s-.14.27,0,.34.19,0,.19,0a.3.3,0,0,0,.27.26s-.07.16.2.2l.13.11s-.39.36-.38.43-.17,0-.17,0l-.11.16a1.54,1.54,0,0,1-.22.3c-.09.05-.33.2-.33.3s-.25.26-.25.26v-.1l-.31.43,0-.1L325,179l-.27.08a7.24,7.24,0,0,0-.27-.76,4,4,0,0,1-.24-.45c0-.08,0-.73,0-.73l-.21.81s-.26-.06-.27,0-.17-.78-.17-.78l-.1.76s-.22.08-.26.21-.3.78-.3.78l-.3-.07-.13-.33-.12.05-.16-.37-.14-.08a.66.66,0,0,0-.24-.33.79.79,0,0,1-.23-.41.54.54,0,0,1-.23-.24A1.42,1.42,0,0,0,321.05,176.84Z" transform="translate(-285.66 -171.85)"/><path class="cls-1" d="M304.43,217.91v.24h-4.7v-.24c.9-.1.94-1,.94-1.59v-7.94a1.55,1.55,0,0,0-.35-1.19,1.15,1.15,0,0,0-.72-.28l0-.14,3.66-1.16.23.17v10.6C303.51,216.93,303.55,217.7,304.43,217.91Z" transform="translate(-285.66 -171.85)"/><path class="cls-1" d="M313.52,214c0,3.06-2.16,4.14-4.3,4.14s-4.35-.91-4.37-4c0-2.65,1.33-4.12,3.24-4.58a5,5,0,0,1,1.34-.19C311.8,209.39,313.52,210.94,313.52,214Zm-3.1-.93c-.55-2-1.12-3.19-1.75-3.19-1.42,0-1,3.4-.73,4.43s1,3.3,1.93,3.3C311.17,217.62,310.67,214,310.42,213.08Z" transform="translate(-285.66 -171.85)"/><path class="cls-1" d="M322.58,216.15c-1.1,2-2.63,2-5.09,2a2.82,2.82,0,0,1-3.06-2.61,2.31,2.31,0,0,1,2.16-2.64,1.62,1.62,0,0,1,1.58,2.41,1.36,1.36,0,0,0-2.29.95c0,1.13,1,1.49,1.87,1.49,1.95,0,2.58-1.49,2.58-3.09a12,12,0,0,0-.53-3.49c-.54-.75-1.4-.46-1.93.4v1.22A2.63,2.63,0,0,0,315,213v-4.6a1.58,1.58,0,0,0-.34-1.19,1.14,1.14,0,0,0-.73-.28l0-.14,3.67-1.16.23.17v5.16a3.3,3.3,0,0,1,2.59-1.57,2.63,2.63,0,0,1,2.35,2A6.13,6.13,0,0,1,322.58,216.15Z" transform="translate(-285.66 -171.85)"/><path class="cls-1" d="M329.84,215.54a2.46,2.46,0,0,1-2.62,2.61h-2.86l-.12-2.48h.18a2.17,2.17,0,0,0,2.06,2.12,1,1,0,0,0,.95-1c0-.69-1.07-1.51-1.47-1.85a3.85,3.85,0,0,1-1.64-3c0-1.76,1.11-2.56,2.75-2.56a4.33,4.33,0,0,1,1.37.17c.65.21.79.25.9-.17h.1v2.75h-.14c-.09-1.55-1-2.41-1.68-2.41a.88.88,0,0,0-.93,1.05c.09.77,1.16,1.65,1.62,2A3.27,3.27,0,0,1,329.84,215.54Z" transform="translate(-285.66 -171.85)"/><path class="cls-1" d="M335.78,217.22a3,3,0,0,1-2.3.93,2.18,2.18,0,0,1-1.64-.61,2.12,2.12,0,0,1-.57-1.52v-6h-.8v-.25l3.32-2.67h.31v2.31h2.1l-.08.61h-2v6a2,2,0,0,0,.21,1,.59.59,0,0,0,.51.32,1.13,1.13,0,0,0,.71-.32,2.79,2.79,0,0,0,.61-.82l.25.21A3.7,3.7,0,0,1,335.78,217.22Z" transform="translate(-285.66 -171.85)"/><path class="cls-1" d="M341.83,218a4,4,0,0,1-1.22.15,3.53,3.53,0,0,1-3.44-2.36c-1.13-3.06.61-6.46,3.84-6.46,2.29,0,3.22,1.89,3.22,4.15h-4.48c-.14,1.35.15,3.93,1.85,4a3.12,3.12,0,0,0,2.56-1.71l.23.19A4,4,0,0,1,341.83,218Zm-2.08-5h1.83c-.06-1.49,0-3.32-.94-3.23S339.84,212.14,339.75,213Z" transform="translate(-285.66 -171.85)"/><path class="cls-1" d="M350.34,217.91v.24h-5.1v-.24c.6-.06,1.19-.75,1.19-2.12l0-1.51v-1.13h2.84v2.64C349.25,217.33,349.64,217.77,350.34,217.91Zm2.37-7.16a3.24,3.24,0,0,1-1,2.17c-.23-.61-.48-1.45-1.21-1.45a1.29,1.29,0,0,0-.89.65l-.39.65v.38h-2.84v-1a1.51,1.51,0,0,0-.36-1.18,1.2,1.2,0,0,0-.71-.29l0-.13,3.65-1.15.24.17v2.35l.77-1.6a1.79,1.79,0,0,1,1.33-.94A1.5,1.5,0,0,1,352.71,210.75Z" transform="translate(-285.66 -171.85)"/><path class="cls-2" d="M290.49,202.67v.23h-4.71v-.23c.91-.11,1-1,1-1.6v-7.94a1.56,1.56,0,0,0-.36-1.19,1.11,1.11,0,0,0-.71-.27l0-.15,3.65-1.16.23.17v10.6C289.56,201.68,289.6,202.46,290.49,202.67Z" transform="translate(-285.66 -171.85)"/><path class="cls-2" d="M296,202.65v.25h-5.08v-.25c.59-.07,1.17-.76,1.15-2.12v-3.64a1.59,1.59,0,0,0-.35-1.19,1.21,1.21,0,0,0-.74-.3l0-.12,3.68-1.16.25.17v6.24C294.92,202.06,295.32,202.5,296,202.65Zm-4.52-10.46a1.71,1.71,0,0,1,1.75-1.78,1.73,1.73,0,0,1,1.76,1.82,1.67,1.67,0,0,1-1.72,1.77A1.75,1.75,0,0,1,291.47,192.19Z" transform="translate(-285.66 -171.85)"/><path class="cls-2" d="M304.79,203.74c-.07,1.4-1.6,3-4.45,3-3.28,0-4.08-1.09-4.14-2.08-.06-.8.84-1.51.84-1.51a1.19,1.19,0,0,1-.71-1.18c.06-.88,1.07-1.68,2.75-1.76a2.69,2.69,0,0,0-.7-.23,2.53,2.53,0,0,1-1.89-2.56c0-2.33,2.23-3.22,3.82-3.22a4.53,4.53,0,0,1,2.52.8c.42-1,1.68-1.09,2.29.13a1.78,1.78,0,0,0-1.63.86,2.44,2.44,0,0,1,.39,1.38,3,3,0,0,1-3.31,3h-.38a.62.62,0,0,0-.63.66c0,.81,2.27.79,2.73.84C304,202,304.85,202.69,304.79,203.74Zm-2,1.3c0-1-1.49-1-2.1-1.11a14.9,14.9,0,0,1-2.51-.38c0,1.85.9,2.71,2.77,2.71C301.81,206.26,302.83,205.75,302.83,205Zm-3.61-7.79c0,.88.26,2.67,1.16,2.67s.88-1.64.88-2.59-.36-2.79-1.24-2.75C299.41,194.6,299.22,196.66,299.22,197.25Z" transform="translate(-285.66 -171.85)"/><path class="cls-2" d="M314.51,202.65v.25h-4.22v-.23c.48,0,.63-.74.69-1.51.07-1.22,0-3.09,0-4.33a1.14,1.14,0,0,0-1.05-1.22,1.55,1.55,0,0,0-.88.34v5.14c0,.67.11,1.51.74,1.58v.23h-4.37v-.23c.5.06.8-.3.8-1.58v-8a1.48,1.48,0,0,0-.38-1.19,1,1,0,0,0-.72-.27l0-.15,3.67-1.16.23.17v4.91a4.65,4.65,0,0,1,2.67-1.3,2.15,2.15,0,0,1,1.95,2.25c0,1.66,0,3.46,0,5.14C313.65,202.23,314.07,202.67,314.51,202.65Z" transform="translate(-285.66 -171.85)"/><path class="cls-2" d="M320,202a3.05,3.05,0,0,1-2.31.93,2.16,2.16,0,0,1-1.63-.61,2.1,2.1,0,0,1-.57-1.51v-6h-.8v-.25l3.32-2.67h.31v2.31h2.1l-.08.61h-2v6a2,2,0,0,0,.21,1,.59.59,0,0,0,.51.32,1.13,1.13,0,0,0,.71-.32,2.79,2.79,0,0,0,.61-.82l.25.21A3.7,3.7,0,0,1,320,202Z" transform="translate(-285.66 -171.85)"/><path class="cls-2" d="M330.45,202.65v.25h-4.22v-.23c.48,0,.63-.74.69-1.51.06-1.22,0-3.09,0-4.33a1.14,1.14,0,0,0-1.05-1.22,1.55,1.55,0,0,0-.88.34v5.14c0,.67.1,1.51.73,1.58v.23h-4.36v-.23c.5.06.79-.3.79-1.58v-8a1.48,1.48,0,0,0-.37-1.19,1.06,1.06,0,0,0-.72-.27l0-.15,3.68-1.16.23.17v4.91a4.62,4.62,0,0,1,2.67-1.3,2.15,2.15,0,0,1,1.95,2.25c0,1.66,0,3.46,0,5.14C329.59,202.23,330,202.67,330.45,202.65Z" transform="translate(-285.66 -171.85)"/><path class="cls-2" d="M339.54,198.76c0,3.07-2.16,4.14-4.3,4.14s-4.35-.9-4.37-4c0-2.65,1.32-4.12,3.23-4.58a5.55,5.55,0,0,1,1.35-.19C337.82,194.14,339.54,195.7,339.54,198.76Zm-3.11-.92c-.54-2-1.11-3.19-1.74-3.19-1.43,0-1,3.4-.73,4.43s1,3.29,1.93,3.29C337.19,202.37,336.69,198.76,336.43,197.84Z" transform="translate(-285.66 -171.85)"/><path class="cls-2" d="M350.1,201.68V202l-3.46.9-.44-.25v-1.39a5.37,5.37,0,0,1-1,.86,3.61,3.61,0,0,1-1.93.76,1.78,1.78,0,0,1-1.79-1.77l0-4.24a1.5,1.5,0,0,0-.35-1.19,1.14,1.14,0,0,0-.72-.3l0-.12,3.66-1.16.23.17v6c0,.71.25,1.07.73,1.07s.76-.28,1.18-.78v-3.74a1.58,1.58,0,0,0-.36-1.19,1.16,1.16,0,0,0-.71-.3v-.12l3.67-1.16.25.17v6C349.05,201.09,349.08,202.18,350.1,201.68Z" transform="translate(-285.66 -171.85)"/><path class="cls-2" d="M356.34,200.29a2.46,2.46,0,0,1-2.62,2.61h-2.86l-.12-2.48h.18a2.16,2.16,0,0,0,2.06,2.12,1,1,0,0,0,.95-1c0-.69-1.07-1.51-1.47-1.84a3.89,3.89,0,0,1-1.64-3c0-1.76,1.11-2.56,2.75-2.56a4.23,4.23,0,0,1,1.36.17c.66.21.8.25.91-.17h.1v2.75h-.14c-.09-1.55-1-2.41-1.68-2.41a.88.88,0,0,0-.93,1.05c.09.78,1.16,1.66,1.62,2A3.29,3.29,0,0,1,356.34,200.29Z" transform="translate(-285.66 -171.85)"/><path class="cls-2" d="M362.2,202.75a3.68,3.68,0,0,1-1.22.15,3.53,3.53,0,0,1-3.44-2.35c-1.13-3.07.61-6.47,3.84-6.47,2.29,0,3.21,1.89,3.21,4.16h-4.47c-.15,1.34.15,3.92,1.85,4a3.14,3.14,0,0,0,2.56-1.7l.23.19A4,4,0,0,1,362.2,202.75Zm-2.08-5H362c-.06-1.49,0-3.32-.95-3.23C360.21,194.54,360.21,196.89,360.12,197.71Z" transform="translate(-285.66 -171.85)"/><path class="cls-3" d="M300.64,210.57s.07,6.05,0,6.26a1.15,1.15,0,0,1-.91,1.08v.24h4.7v-.24s-1.07-.27-.92-1.79l0-5.55Z" transform="translate(-285.66 -171.85)"/><path class="cls-4" d="M299.15,214.58" transform="translate(-285.66 -171.85)"/><path class="cls-5" d="M301.69,209.07h.65s-.1-.74-.33-.76S301.69,209.07,301.69,209.07Z" transform="translate(-285.66 -171.85)"/></svg>